HIERARCHY
ROOT Model_Hips
{
	OFFSET 0.000000 96.915077 0.000000
	CHANNELS 6 Xposition Yposition Zposition Xrotation Yrotation Zrotation
	JOINT Model_Spine
	{
		OFFSET 0.000000 11.137703 -1.289900
		CHANNELS 3 Xrotation Yrotation Zrotation
		JOINT Model_Spine1
		{
			OFFSET 0.000000 12.993942 -1.504922
			CHANNELS 3 Xrotation Yrotation Zrotation
			JOINT Model_Spine2
			{
				OFFSET 0.000000 14.850220 -1.719911
				CHANNELS 3 Xrotation Yrotation Zrotation
				JOINT Model_Neck
				{
					OFFSET 0.000000 16.706543 -1.934903
					CHANNELS 3 Xrotation Yrotation Zrotation
					JOINT Model_Head
					{
						OFFSET 0.000000 10.471298 2.002100
						CHANNELS 3 Xrotation Yrotation Zrotation
						JOINT Model_HeadTop_End
						{
							OFFSET 0.000000 20.842606 3.985100
							CHANNELS 3 Xrotation Yrotation Zrotation
							End Site
							{
								OFFSET 0.000000 21.220154 0.000000
							}
						}
					}
				}
				JOINT Model_LeftShoulder
				{
					OFFSET 7.008500 14.768600 -1.919946
					CHANNELS 3 Xrotation Yrotation Zrotation
					JOINT Model_LeftArm
					{
						OFFSET 14.126271 -3.718048 0.029937
						CHANNELS 3 Xrotation Yrotation Zrotation
						JOINT Model_LeftForeArm
						{
							OFFSET 28.282801 0.000000 0.000000
							CHANNELS 3 Xrotation Yrotation Zrotation
							JOINT Model_LeftHand
							{
								OFFSET 26.204689 0.000000 0.000000
								CHANNELS 3 Xrotation Yrotation Zrotation
								End Site
								{
									OFFSET 26.204704 0.000000 0.000000
								}
							}
						}
					}
				}
				JOINT Model_RightShoulder
				{
					OFFSET -7.008500 14.768555 -1.949840
					CHANNELS 3 Xrotation Yrotation Zrotation
					JOINT Model_RightArm
					{
						OFFSET -14.126281 -3.718018 -0.029932
						CHANNELS 3 Xrotation Yrotation Zrotation
						JOINT Model_RightForeArm
						{
							OFFSET -28.283798 0.000000 -0.000001
							CHANNELS 3 Xrotation Yrotation Zrotation
							JOINT Model_RightHand
							{
								OFFSET -26.204193 0.000000 -0.000001
								CHANNELS 3 Xrotation Yrotation Zrotation
								End Site
								{
									OFFSET -26.204208 0.000000 -0.000001
								}
							}
						}
					}
				}
			}
		}
	}
	JOINT Model_LeftUpLeg
	{
		OFFSET 8.327700 -6.193199 -0.402800
		CHANNELS 3 Xrotation Yrotation Zrotation
		JOINT Model_LeftLeg
		{
			OFFSET 0.735802 -42.108742 -0.610721
			CHANNELS 3 Xrotation Yrotation Zrotation
			JOINT Model_LeftFoot
			{
				OFFSET -0.735806 -36.833748 -0.172876
				CHANNELS 3 Xrotation Yrotation Zrotation
				JOINT Model_LeftToeBase
				{
					OFFSET -0.565857 -11.977769 16.297714
					CHANNELS 3 Xrotation Yrotation Zrotation
					JOINT Model_LeftToe_End
					{
						OFFSET -0.111712 -0.312793 7.857784
						CHANNELS 3 Xrotation Yrotation Zrotation
						End Site
						{
							OFFSET -0.111712 -0.312793 7.857784
						}
					}
				}
			}
		}
	}
	JOINT Model_RightUpLeg
	{
		OFFSET -8.327700 -6.193199 -0.516500
		CHANNELS 3 Xrotation Yrotation Zrotation
		JOINT Model_RightLeg
		{
			OFFSET -0.735785 -42.108738 -0.434061
			CHANNELS 3 Xrotation Yrotation Zrotation
			JOINT Model_RightFoot
			{
				OFFSET 0.735776 -36.833748 -0.021630
				CHANNELS 3 Xrotation Yrotation Zrotation
				JOINT Model_RightToeBase
				{
					OFFSET 0.565817 -11.977745 15.903093
					CHANNELS 3 Xrotation Yrotation Zrotation
					JOINT Model_RightToe_End
					{
						OFFSET 0.111702 -0.312791 7.811342
						CHANNELS 3 Xrotation Yrotation Zrotation
						End Site
						{
							OFFSET 0.111702 -0.312791 7.811342
						}
					}
				}
			}
		}
	}
}
MOTION
Frames: 10
Frame Time: 0.016667
-2.305673 83.303596 90.416222 0.512912 -177.850271 -2.202733 16.350450 -1.461591 -1.854835 2.618188 -0.312055 0.218736 2.619063 -0.337576 0.232719 -0.209361 -0.145335 1.839250 -7.850080 -0.408244 1.942884 0.000001 0.000000 -0.000000 0.379051 -7.455245 -14.967572 0.689854 -11.454354 -46.137904 -0.000029 -65.636772 -0.000007 0.000002 0.000000 -0.000001 0.529816 4.176235 17.560341 -14.106817 21.797336 51.050108 -0.000003 56.067032 0.000017 0.000002 0.000001 -0.000002 -32.494140 -0.937645 1.052987 72.887223 7.932618 4.440923 -39.662215 2.283279 -3.216677 -6.310183 -0.000001 0.000003 0.000000 0.000000 -0.000000 -53.566366 -2.598061 -9.532626 81.123857 -3.247043 1.284321 5.928732 0.195300 7.220204 -24.989222 0.115793 -0.257168 0.000000 0.000000 0.000001 
-2.531997 82.733948 95.084122 0.873614 -178.868652 -1.466577 16.530443 0.043795 -2.716034 2.634574 0.140476 0.141692 2.636196 0.110665 0.144240 -0.347556 -0.243085 2.481840 -7.977229 -0.533743 2.463843 -0.000000 0.000000 -0.000000 0.388460 -7.296788 -14.871929 3.218767 -11.822312 -49.454968 -0.000008 -58.698837 0.000000 -0.000000 -0.000001 0.000000 0.472647 5.212063 16.896110 -18.035707 22.946350 50.657338 0.000000 58.620249 0.000027 -0.000002 -0.000004 0.000001 -36.363005 -1.022969 0.609831 73.501571 7.606008 3.931239 -35.910338 2.879092 -4.996855 -5.379124 0.000003 -0.000002 0.000000 0.000000 -0.000000 -51.667256 -2.669781 -10.418484 87.320806 -0.082759 0.805704 5.260699 0.164547 7.172351 -30.975632 0.355884 -0.632800 -0.000002 0.000000 0.000000 
-2.746042 82.817238 99.491692 1.133677 -179.899601 -1.018872 16.292720 2.052079 -3.256458 2.685380 0.705689 0.110770 2.688384 0.670983 0.099145 -0.364597 -0.403244 3.045636 -7.987231 -0.682759 2.814629 -0.000001 -0.000000 0.000000 0.377670 -7.151031 -15.546127 6.820203 -11.089764 -51.499783 -0.000012 -54.270832 -0.000001 -0.000001 0.000000 -0.000000 0.456615 5.752127 16.092716 -20.656939 22.920160 50.159352 -0.000007 62.320654 0.000020 -0.000000 0.000000 -0.000000 -39.202311 -1.045940 0.353864 72.093910 7.757122 3.609694 -31.333783 2.983559 -5.845328 -4.434394 0.000003 0.000002 -0.000000 0.000000 -0.000000 -48.179212 -2.993292 -11.299595 91.044106 2.666772 0.449723 4.700670 0.170700 7.709520 -33.307417 1.051177 -1.734035 0.000001 -0.000001 0.000001 
-2.925845 83.547798 103.790535 1.645421 -180.772363 -0.823586 16.119269 4.160770 -3.458598 2.759410 1.278728 0.106058 2.765051 1.239608 0.079322 -0.313190 -0.576963 3.650496 -7.929414 -0.815469 3.112012 -0.000000 0.000000 0.000000 0.382905 -6.745580 -16.354794 11.402127 -9.566460 -52.704236 -0.000010 -52.512752 0.000004 0.000002 -0.000000 0.000001 0.469694 5.740620 15.428718 -22.425934 22.947455 49.520371 -0.000004 66.389254 0.000014 0.000001 -0.000000 0.000001 -40.611038 -0.951325 0.366853 68.592591 7.974908 3.455868 -25.909860 2.737503 -5.964561 -3.287376 0.000001 -0.000003 0.000000 0.000000 -0.000000 -43.155416 -3.525698 -12.045156 92.352531 4.536184 0.175174 4.305949 0.187683 8.093855 -32.467632 1.364822 -2.317200 -0.000002 0.000000 0.000000 
-3.026681 84.788437 108.138931 2.462699 -181.355156 -0.709033 16.215047 5.965974 -3.490083 2.810587 1.763836 0.100302 2.819355 1.722187 0.060267 -0.206799 -0.723145 4.288158 -7.816605 -0.902638 3.388911 0.000000 0.000000 0.000000 0.435031 -5.910662 -16.483461 16.247196 -7.476429 -53.874575 -0.000007 -52.761408 -0.000001 -0.000000 0.000000 0.000000 0.485009 5.520955 15.087500 -23.363282 23.395399 48.511719 0.000018 70.389853 -0.000029 -0.000001 -0.000001 -0.000000 -40.537145 -0.704406 0.545126 62.942126 7.940882 3.398392 -19.576374 2.301116 -5.605415 -2.037144 0.000002 0.000002 0.000000 0.000000 -0.000000 -37.133775 -4.021308 -12.487131 91.589005 5.319405 -0.133489 4.257061 0.230670 8.432276 -29.284644 0.973334 -1.869025 -0.000000 -0.000000 -0.000000 
-2.997821 86.350838 112.634270 3.301172 -181.530268 -0.535364 16.416396 7.266180 -3.517045 2.800856 2.114182 0.100504 2.812291 2.071302 0.051876 -0.050322 -0.812525 4.904735 -7.653563 -0.922062 3.630851 -0.000001 0.000001 -0.000000 0.506364 -4.888659 -15.685470 20.794625 -4.747799 -55.384962 -0.000010 -54.131271 -0.000015 0.000002 0.000000 -0.000001 0.488257 5.484728 14.964103 -23.404231 23.923672 47.097733 -0.000016 74.206283 0.000043 0.000001 -0.000001 0.000000 -39.263138 -0.323368 0.715492 54.963034 7.391993 3.368204 -12.144380 1.768168 -4.842961 -1.043816 0.000001 -0.000001 0.000000 -0.000001 0.000000 -30.921649 -4.321046 -12.505531 89.183645 5.388387 -0.549726 4.724876 0.344936 9.251420 -24.595081 0.461260 -1.120002 -0.000002 0.000002 -0.000000 
-2.818012 88.036888 117.320686 3.799544 -181.173664 -0.262142 16.474189 8.044330 -3.577890 2.736152 2.324906 0.130456 2.749923 2.280420 0.078904 0.110708 -0.843348 5.428640 -7.485974 -0.877255 3.800955 0.000000 -0.000001 -0.000001 0.543687 -4.232401 -14.389142 24.802492 -1.275366 -57.133566 -0.000003 -55.877016 0.000001 -0.000000 0.000001 -0.000000 0.483306 5.673673 14.812915 -22.597049 24.138893 45.517248 -0.000032 77.861431 0.000082 0.000000 0.000002 -0.000000 -36.978525 0.076337 0.643266 44.028759 6.252247 3.355728 -3.128651 1.208777 -3.552121 -2.628817 -0.000002 0.000000 0.000000 0.000001 0.000000 -25.287039 -4.482426 -12.112517 85.592037 5.560560 -1.006054 5.785106 0.547708 10.448599 -20.015880 0.405636 -1.332435 -0.000002 0.000001 -0.000001 
-2.517447 89.616333 122.175339 3.763226 -180.224254 0.076312 16.247473 8.351148 -3.587423 2.662792 2.405619 0.187332 2.678585 2.359008 0.136751 0.205325 -0.840632 5.815672 -7.385998 -0.802327 3.885548 -0.000000 0.000001 -0.000000 0.540718 -4.273812 -13.255694 28.206724 2.743923 -58.835434 -0.000016 -57.572245 -0.000012 -0.000001 0.000002 -0.000001 0.484163 5.775736 14.555847 -21.119840 24.036435 44.054310 -0.000080 81.419530 0.000119 -0.000003 0.000001 0.000000 -32.890230 0.253010 0.186896 27.873795 4.880196 3.443916 9.247000 0.711161 -2.214710 -1.334311 -0.000002 -0.000002 0.000000 -0.000001 -0.000000 -20.757848 -4.630983 -11.456333 81.429365 6.482048 -1.333070 7.179456 0.776381 11.400136 -17.330960 0.705464 -2.990680 0.000001 -0.000000 -0.000000 
-2.193218 89.861908 126.647171 3.168307 -178.785474 0.400511 14.445896 8.296463 -3.330214 3.101073 2.373389 0.254925 3.116144 2.327500 0.222978 0.246896 -0.834684 6.057089 -7.342752 -0.741233 3.905462 0.000000 0.000000 -0.000000 0.522138 -4.811318 -12.743676 33.587923 7.610035 -60.893848 -0.000004 -61.823450 0.000005 -0.000000 0.000001 -0.000000 0.497066 5.491936 14.365922 -19.217603 23.291001 42.306253 0.000082 86.420587 -0.000028 -0.000000 0.000001 0.000002 -30.558379 -0.082246 -0.035115 14.741119 4.643044 3.669099 19.063931 -0.169222 -5.232979 3.087376 0.000001 -0.000002 0.000000 -0.000001 0.000000 -17.779455 -4.620558 -10.864675 79.295600 8.221525 -1.431209 6.658823 0.791205 11.668562 -17.036331 1.231675 -5.558434 0.000001 0.000001 -0.000000 
-1.906711 89.652557 131.046143 2.065986 -177.125370 0.662660 12.058867 7.871411 -2.944027 3.732723 2.241002 0.298861 3.744254 2.200289 0.289266 0.213642 -0.846588 6.144521 -7.380828 -0.727702 3.886365 -0.000000 0.000001 0.000000 0.501061 -5.374423 -12.947647 38.544462 11.689287 -63.194447 -0.000010 -65.035210 -0.000009 -0.000000 -0.000000 0.000000 0.516197 4.850928 14.529515 -17.366598 22.486805 40.849866 0.000212 90.461054 -0.000744 0.000000 -0.000000 -0.000001 -31.684988 -0.619037 -0.695874 9.981793 5.478231 4.183420 20.228517 -0.489944 -7.238944 4.571485 -0.000003 0.000002 0.000000 -0.000000 0.000001 -16.202366 -4.585933 -10.259174 77.686333 9.682795 -1.364996 5.532274 0.653669 11.258060 -19.665412 2.253825 -7.988706 -0.000001 0.000000 0.000000 
